<?xml version="1.0" encoding="utf-8"?>
<!-- Generator: Adobe Illustrator 27.5.0, SVG Export Plug-In . SVG Version: 6.00 Build 0)  -->
<svg version="1.1" id="Capa_1" xmlns="http://www.w3.org/2000/svg" xmlns:xlink="http://www.w3.org/1999/xlink" x="0px" y="0px"
	 viewBox="0 0 2122 2122" style="enable-background:new 0 0 2122 2122;" xml:space="preserve">
<g>
	<path style="fill:#B47C5C;" d="M893.302,1059.732l-0.271-0.398l-26.813-17.434l-19.946-12.969l-0.849,0.162l-457.924,646.51
		c-5.252,7.415-8.112,15.811-8.816,24.28l0.09,0.378c2.982,4.853,6.821,9.288,11.566,12.995v0
		c9.003,7.036,19.649,10.418,30.191,10.418c15.74,0.002,31.267-7.54,40.794-21.697l431.883-641.773L893.302,1059.732z"/>
	<path style="fill:#B47C5C;" d="M937.843,1088.47l-0.637-0.025l-0.154,0.258l-0.073-0.047l-429.625,667.157
		c-5.377,8.348-7.937,17.72-7.936,26.994c0,0.224,0.037,0.445,0.04,0.668l-0.052,0.077c0.025,1.8,0.168,3.587,0.382,5.359
		l0.234,0.416l0.46,0.128l0.416-0.235l0.127-0.458l0.001-0.001c-0.001-0.009-0.001-0.018-0.002-0.026
		c-0.138-1.133-0.149-2.277-0.207-3.418c5.39,5.767,26.543,27.099,47.651,27.156c9.446,0.015,18.849-4.392,26.51-16.308l0.008-0.011
		l413.657-673.928l-0.192-0.849L937.843,1088.47z"/>
	<path style="fill:#754732;" d="M911.819,1072.305l0.138-0.39l-0.28-0.458l-18.646-12.124c0,0-0.781,0.082-0.858,0.175
		L460.29,1701.281c-9.288,13.801-24.413,21.145-39.76,21.146c-10.277,0-20.644-3.293-29.423-10.153
		c-4.621-3.611-8.362-7.931-11.272-12.666l-0.701-0.273c0,0-0.417,0.551-0.452,0.549c-0.112,1.35-0.169,2.703-0.168,4.053
		c0.005,23.904,18.353,45.273,42.032,48.672c16.422,2.358,33.827-4.148,44.604-16.985c1.118-1.333,2.178-2.737,3.172-4.215
		C468.323,1731.41,911.854,1072.328,911.819,1072.305z"/>
	<path style="fill:#754732;" d="M1004.881,1132.058l-16.431-10.683l-0.477-0.086l-0.394,0.282L573.928,1795.49
		c-7.518,11.635-16.411,15.72-25.46,15.734c-22.588,0.063-46.301-26.166-47.972-28.096l-0.691-0.167l-0.398,0.59
		c-1.444,2.167,1.212,10.399,1.919,12.862c1.353,4.715,3.394,9.23,6.024,13.37c5.351,8.418,13.14,15.146,22.306,19.101
		c4.79,2.066,9.788,3.329,14.815,3.823c18.79,1.849,37.824-7.623,47.655-23.722l160.72-263.132l252.227-412.947l0.092-0.325
		L1004.881,1132.058z"/>
	<path style="fill:#21141A;" d="M1705.435,380.822l-0.85-0.068l-0.123,0.844c0.598,0.859,1.191,1.719,1.786,2.581
		c1.627,2.358,3.241,4.715,4.834,7.077c0.669,0.992,1.327,1.988,1.994,2.986c3.181,4.761,6.29,9.525,9.328,14.293
		c0.47,0.739,0.948,1.474,1.41,2.205c1.561,2.468,3.089,4.932,4.61,7.4c0.658,1.069,1.311,2.137,1.962,3.206
		c24.271,39.84,43.074,79.151,53.601,113.461c18.856,61.457,28.415,128.099,28.415,197.458c0,150.716-45.135,314.258-138.04,465.299
		c-60.098,97.703-133.895,179.892-214.921,244.177l-0.234,0.54l0.275,0.426l-0.02,0.027c0.02,0.015,0.042,0.023,0.061,0.037
		l0.002,0.004l0.003,0.001l0.001-0.001c4.76,3.475,10.326,5.097,16.484,5.095c14.456-0.014,32.199-8.786,51.601-23.18
		c58.171-43.202,131.218-137.367,170.458-201.146c94.331-153.358,140.631-316.34,140.631-465.37
		C1838.704,611.313,1793.736,477.988,1705.435,380.822z"/>
	<path style="fill:#9A664B;" d="M1767.948,565.145l-0.001-0.005c-7.107-46.707-17.887-92.386-31.91-136.804l-0.058-0.13
		c-1.483-2.501-3.003-5.007-4.528-7.51c-0.652-1.07-1.306-2.139-1.966-3.211c-1.521-2.469-3.054-4.94-4.617-7.412
		c-0.468-0.741-0.947-1.477-1.413-2.209c-3.041-4.774-6.157-9.547-9.343-14.314c-0.663-0.994-1.323-1.992-1.996-2.991
		c-1.596-2.366-3.213-4.728-4.842-7.087c-0.595-0.861-1.188-1.723-1.788-2.585l-0.002-0.003l-0.782-1.111l0.001,0.002
		c-5.259-7.532-10.684-15.026-16.254-22.457c-1.076-1.435-2.153-2.871-3.241-4.304c-1.589-2.091-3.187-4.178-4.798-6.257
		c-1.216-1.57-2.446-3.129-3.671-4.687c-2.461-3.129-4.946-6.239-7.453-9.334c-1.535-1.894-3.068-3.791-4.623-5.674
		c-1.498-1.815-3.011-3.614-4.521-5.411c-1.48-1.761-2.965-3.514-4.459-5.26c-1.464-1.712-2.928-3.424-4.407-5.124
		c-2.158-2.48-4.333-4.939-6.516-7.384c-1.702-1.908-3.415-3.798-5.13-5.682c-1.915-2.103-3.836-4.198-5.769-6.273
		c-1.359-1.459-2.724-2.906-4.091-4.349c-1.956-2.065-3.921-4.109-5.892-6.141c-1.18-1.216-2.358-2.446-3.549-3.656
		c-2.975-3.023-5.967-6.005-8.974-8.947c-1.109-1.086-2.224-2.146-3.331-3.215c-2.19-2.114-4.386-4.207-6.591-6.275
		c-1.196-1.121-2.393-2.242-3.594-3.35c-2.665-2.46-5.337-4.884-8.019-7.271c-0.595-0.53-1.193-1.083-1.802-1.62
		c-3.203-2.827-6.417-5.582-9.636-8.296c-1.073-0.905-2.146-1.79-3.216-2.678c-2.432-2.018-4.868-4.001-7.308-5.951
		c-0.99-0.792-1.983-1.595-2.981-2.381c-3.295-2.592-6.594-5.131-9.901-7.593c-0.631-0.469-1.255-0.91-1.87-1.363
		c-2.784-2.051-5.569-4.051-8.357-6.003c-1.022-0.715-2.043-1.422-3.064-2.123c-2.738-1.88-5.475-3.709-8.213-5.488
		c-0.674-0.438-1.358-0.901-2.048-1.343c-3.348-2.144-6.693-4.202-10.035-6.186c-0.861-0.511-1.714-0.993-2.562-1.486
		c-2.618-1.523-5.233-2.994-7.845-4.414c-0.958-0.521-1.92-1.047-2.883-1.556c-3.364-1.781-6.726-3.504-10.08-5.107l-0.01-0.005
		l-0.064-0.029l-0.814,0.284l0.248,0.826c4.497,2.556,8.965,5.186,13.396,7.91l0.011,0.007l0.027,0.016
		c17.589,10.82,34.199,22.736,49.862,35.616c6.551,5.386,12.938,10.937,19.149,16.66c3.937,3.629,7.82,7.307,11.617,11.064
		c10.999,10.882,21.399,22.331,31.248,34.264c7.786,9.432,15.202,19.186,22.264,29.23c12.005,17.072,22.995,34.97,32.892,53.653
		c3.514,6.636,6.854,13.4,10.104,20.228c1.672,3.513,3.315,7.044,4.916,10.604c3.457,7.691,6.786,15.465,9.909,23.366
		c3.212,8.124,6.215,16.38,9.076,24.722c0.953,2.779,1.882,5.572,2.796,8.376c2.646,8.112,5.164,16.294,7.478,24.585
		c8.272,29.634,14.433,60.399,18.455,92.028c1.341,10.543,2.444,21.181,3.308,31.906c0.452,5.601,0.83,11.228,1.151,16.876
		c0.789,13.878,1.184,27.889,1.185,42.013c-0.001,18.642-0.691,37.481-2.078,56.468c-0.41,5.604-0.88,11.22-1.411,16.849
		c-1.062,11.256-2.366,22.56-3.916,33.9c-0.774,5.67-1.61,11.35-2.506,17.037c-1.793,11.374-3.83,22.781-6.113,34.21
		c-1.141,5.714-2.344,11.434-3.608,17.158c-3.792,17.172-8.138,34.383-13.04,51.6c-1.635,5.738-3.33,11.478-5.088,17.217
		c-3.516,11.477-7.281,22.952-11.293,34.414c-6.02,17.194-12.6,34.359-19.743,51.463c-4.763,11.403-9.775,22.779-15.04,34.117
		c-15.793,34.016-33.85,67.698-54.2,100.78c-3.768,6.126-7.603,12.177-11.478,18.182c-1.236,1.916-2.499,3.807-3.752,5.718
		c-2.685,4.099-5.385,8.179-8.117,12.217c-1.458,2.155-2.929,4.294-4.402,6.434c-2.625,3.815-5.271,7.602-7.938,11.363
		c-1.483,2.091-2.965,4.18-4.458,6.252c-2.871,3.981-5.772,7.92-8.69,11.841c-1.288,1.73-2.56,3.473-3.851,5.183
		c-8.466,11.218-17.12,22.179-25.952,32.879c-1.253,1.518-2.527,3.012-3.794,4.527c-3.203,3.833-6.422,7.64-9.669,11.402
		c-1.507,1.746-3.024,3.476-4.542,5.209c-3.117,3.559-6.254,7.087-9.41,10.583c-1.5,1.661-2.997,3.322-4.504,4.967
		c-3.443,3.759-6.913,7.472-10.402,11.158c-1.196,1.263-2.377,2.539-3.571,3.785c-9.541,9.967-19.239,19.654-29.086,29.059
		c-0.989,0.944-1.992,1.871-2.993,2.818c-3.926,3.715-7.87,7.391-11.84,11.015c-1.325,1.209-2.656,2.406-3.987,3.607
		c-3.779,3.409-7.576,6.777-11.394,10.103c-1.287,1.122-2.571,2.244-3.86,3.354c-4.023,3.465-8.068,6.879-12.132,10.255
		l-0.258,0.214l-0.383,0.32c-0.803,0.666-1.598,1.343-2.394,1.998c-10.543,8.676-21.217,17.044-32.006,25.1
		c-0.506,0.378-1.022,0.748-1.54,1.134c-1.917,1.424-3.839,2.836-5.764,4.242l-0.257,0.19c-2.791,2.036-5.592,4.053-8.401,6.049
		c-0.967,0.687-1.939,1.367-2.911,2.052c-4.538,3.197-9.095,6.34-13.67,9.427c-0.906,0.612-1.81,1.225-2.714,1.83
		c-4.016,2.688-8.047,5.327-12.09,7.93l-1.033,0.666c-0.758,0.487-1.512,0.98-2.265,1.46l-0.777,0.501
		c-12.315,7.825-24.75,15.244-37.278,22.275l-0.49,0.284l-0.622,0.336c-4.318,2.414-8.637,4.78-12.969,7.093
		c-0.504,0.269-1.011,0.536-1.52,0.806c-5.302,2.817-10.618,5.562-15.949,8.235c-0.458,0.229-0.914,0.461-1.368,0.687
		c-3.122,1.558-6.247,3.098-9.377,4.605l-0.523,0.248c-6.74,3.24-13.498,6.36-20.273,9.367l-0.914,0.41
		c-13.143,5.81-26.351,11.176-39.603,16.103l-0.369,0.136l-1.333,0.491c-0.669,0.247-1.336,0.494-2.001,0.738
		c-4.743,1.732-9.491,3.405-14.243,5.022l-0.386,0.132c-8.79,2.985-17.593,5.776-26.406,8.366c-0.793,0.233-1.587,0.46-2.383,0.691
		c-6.692,1.939-13.387,3.784-20.083,5.491l-0.2,0.053c-6.93,1.764-13.866,3.394-20.802,4.909c-0.691,0.151-1.387,0.291-2.091,0.442
		c-6.201,1.332-12.399,2.562-18.596,3.692c-0.832,0.152-1.656,0.312-2.476,0.458c-6.83,1.216-13.654,2.323-20.47,3.291l-0.734,0.097
		c-6.347,0.893-12.683,1.657-19.013,2.333c-0.66,0.071-1.3,0.172-1.917,0.235c-0.513,0.054-1.046,0.08-1.603,0.135
		c-13.187,1.326-26.33,2.179-39.414,2.55c-1.284,0.036-2.569,0.061-3.857,0.089c-3.903,0.082-7.8,0.127-11.69,0.127
		c-1.967,0-3.933-0.011-5.896-0.035c-0.678-0.008-1.347,0.001-2.001-0.01c-6.459-0.104-12.897-0.339-19.318-0.684
		c-1.201-0.064-2.405-0.152-3.617-0.226c-5.385-0.327-10.753-0.74-16.106-1.239c-1.274-0.119-2.545-0.222-3.805-0.35
		c-6.295-0.635-12.568-1.375-18.812-2.25l-0.013-0.001l-0.606-0.072c-0.596-0.084-1.205-0.208-1.847-0.302
		c-5.435-0.79-10.846-1.681-16.24-2.655c-1.504-0.271-3.005-0.543-4.503-0.828c-12.249-2.333-24.382-5.145-36.383-8.441
		c-1.536-0.422-3.069-0.861-4.605-1.3c-2.385-0.682-4.767-1.353-7.131-2.07l-0.545,0.091l-0.26,0.488l-0.013,0.849
		c0.015,12.615,8.169,24.868,16.255,34.011c7.02,7.925,14.006,13.492,15.758,14.846l-0.5,0.893l-0.043,0.514l0.359,0.371
		c2.142,0.845,4.287,1.689,6.445,2.503c2.146,0.809,4.299,1.585,6.45,2.359c2.286,0.822,4.576,1.638,6.878,2.424
		c2.208,0.755,4.422,1.482,6.637,2.202c2.261,0.734,4.526,1.456,6.799,2.155c2.272,0.699,4.55,1.378,6.832,2.041
		c2.231,0.648,4.465,1.279,6.705,1.893c2.339,0.641,4.684,1.269,7.035,1.875c2.19,0.564,4.385,1.105,6.581,1.636
		c2.416,0.584,4.836,1.161,7.266,1.708c2.138,0.481,4.281,0.935,6.422,1.386c2.499,0.526,5.002,1.049,7.517,1.536
		c2.073,0.401,4.148,0.77,6.22,1.143c2.599,0.468,5.201,0.937,7.816,1.364c1.968,0.32,3.939,0.605,5.903,0.9
		c2.731,0.411,5.464,0.827,8.213,1.192c1.804,0.24,3.609,0.44,5.404,0.659c2.929,0.355,5.862,0.719,8.811,1.024
		c1.476,0.153,2.95,0.267,4.412,0.406c3.278,0.309,6.56,0.623,9.86,0.868c0.69,0.052,1.372,0.081,2.038,0.128
		c12.051,0.848,24.178,1.272,36.367,1.272c5.6,0,11.213-0.089,16.838-0.268l0.957-0.022c3.98-0.134,7.958-0.334,11.938-0.555
		c0.821-0.046,1.65-0.076,2.49-0.126c3.763-0.227,7.53-0.513,11.296-0.818c1.046-0.084,2.098-0.155,3.159-0.247
		c3.666-0.317,7.334-0.688,11.002-1.078c1.148-0.123,2.302-0.234,3.461-0.364c3.63-0.409,7.261-0.865,10.893-1.344
		c1.185-0.156,2.374-0.306,3.567-0.471c3.629-0.501,7.258-1.047,10.889-1.618c1.188-0.187,2.379-0.372,3.572-0.567
		c3.642-0.596,7.286-1.232,10.931-1.898c1.169-0.213,2.34-0.428,3.512-0.649c3.677-0.695,7.354-1.425,11.033-2.19
		c1.124-0.234,2.247-0.472,3.37-0.713c3.741-0.8,7.483-1.633,11.226-2.506c1.03-0.24,2.059-0.488,3.087-0.733
		c3.831-0.914,7.661-1.859,11.492-2.849c0.92-0.238,1.836-0.485,2.75-0.725c3.944-1.038,7.89-2.106,11.834-3.225
		c0.75-0.214,1.495-0.436,2.236-0.649c4.116-1.184,8.234-2.399,12.348-3.671c0.476-0.147,0.947-0.301,1.412-0.446
		c4.385-1.366,8.771-2.769,13.153-4.234l0.007-0.002l0.136-0.084l0.008,0.013c303.967-198.817,550.097-519.415,550.106-888.316
		C1776.388,644.5,1773.648,605.047,1767.948,565.145z"/>
	<path style="fill:#DF5A51;" d="M1746.283,627.251c-0.322-5.657-0.701-11.294-1.153-16.905c-0.866-10.744-1.971-21.402-3.314-31.964
		c-4.03-31.686-10.202-62.51-18.491-92.205c-2.32-8.312-4.843-16.512-7.493-24.636c-0.916-2.808-1.847-5.608-2.802-8.394
		c-2.866-8.356-5.875-16.63-9.096-24.776c-3.132-7.922-6.467-15.714-9.932-23.419c-1.604-3.569-3.251-7.109-4.926-10.629
		c-3.255-6.839-6.602-13.618-10.129-20.275c-9.921-18.73-20.939-36.672-32.973-53.787c-7.08-10.069-14.516-19.849-22.322-29.307
		c-9.874-11.963-20.302-23.443-31.333-34.357c-3.811-3.77-7.704-7.459-11.649-11.095c-6.229-5.74-12.634-11.306-19.202-16.707
		c-15.708-12.916-32.365-24.867-50.006-35.718l-0.011-0.007l-0.022-0.013l0,0c-4.622-2.842-9.286-5.574-13.978-8.231l-0.028-0.015
		l-0.003-0.001l-0.785,0.193l0.065,0.806l0,0.001l0.045,0.04c153.438,126.089,208.035,270.382,220.116,435.312
		c0.658,11.859,0.98,23.742,0.98,35.638c0.003,173.05-68.16,348.95-159.262,497.589c-39.753,63.604-86.812,118.005-138.93,165.465
		l-0.152,0.71l0.623,0.373c18.291-1.507,36.281-6.207,53.784-13.01l0.218-0.143c3.49-3.53,6.979-7.067,10.432-10.674
		c1.202-1.256,2.386-2.533,3.576-3.791c3.492-3.688,6.967-7.408,10.416-11.172c1.511-1.65,3.011-3.312,4.51-4.974
		c3.161-3.5,6.301-7.033,9.422-10.596c1.518-1.733,3.038-3.466,4.548-5.217c3.253-3.768,6.475-7.581,9.682-11.417
		c1.261-1.509,2.538-3.005,3.799-4.533c8.844-10.713,17.509-21.689,25.986-32.922c1.298-1.72,2.572-3.465,3.856-5.189
		c2.921-3.924,5.826-7.869,8.702-11.856c1.498-2.077,2.981-4.169,4.464-6.26c2.671-3.765,5.32-7.558,7.948-11.378
		c1.473-2.14,2.947-4.283,4.408-6.442c2.737-4.045,5.44-8.13,8.128-12.232c1.248-1.906,2.514-3.799,3.756-5.726
		c3.879-6.011,7.719-12.07,11.493-18.206c20.374-33.123,38.455-66.849,54.269-100.908c5.271-11.353,10.291-22.743,15.059-34.162
		c7.153-17.126,13.742-34.315,19.769-51.532c4.019-11.478,7.788-22.968,11.309-34.461c1.761-5.746,3.458-11.494,5.095-17.241
		c4.909-17.24,9.26-34.475,13.059-51.672c1.266-5.732,2.47-11.461,3.614-17.183c2.286-11.445,4.326-22.869,6.122-34.26
		c0.898-5.696,1.734-11.384,2.51-17.063c1.551-11.357,2.858-22.678,3.921-33.952c0.532-5.637,1.003-11.262,1.413-16.874
		c1.391-19.018,2.081-37.886,2.081-56.559C1747.469,655.187,1747.072,641.152,1746.283,627.251z"/>
	<path style="fill:#C13A2A;" d="M1718.106,621.086l-0.001-0.011c-12.071-165.142-66.857-309.906-220.568-436.189l-0.089-0.061
		c-71.427-40.464-150.893-59.684-233.093-59.683c-117.962,0-241.557,39.573-355.194,112.723l-0.199,0.841
		c2.64,4.471,5.123,9.042,7.38,13.742l0.383,0.327l0.5-0.062c102.387-61.395,208.034-105.175,327.016-108.26
		c1.567-0.041,3.129-0.061,4.686-0.061c121.38-0.064,211.199,122.574,232.913,175.652c25.126,61.337,36.662,125.193,36.663,189.609
		c0,51.543-7.388,103.445-21.112,154.695c-30.814,115.238-164.966,346.178-332.09,377.677c-3.841,0.726-8.184,1.082-12.982,1.082
		c-55.908,0.028-172.887-48.437-282.068-115.911c-109.212-67.449-210.726-153.982-236.094-229.685
		c-7.207-21.477-10.621-43.962-10.621-66.516c0-32.678,7.167-65.498,20.337-95.588c6.339-14.483,13.863-28.346,22.252-41.694
		l0.074-0.492l-0.309-0.39c-3.45-1.835-6.836-3.772-10.149-5.817l-0.841,0.177c-9.761,14.15-19.254,28.635-28.405,43.511
		c-35.286,57.366-63.646,116.538-85.313,176.127l-0.026,0.333c11.904,60.372,56.484,111.752,113.298,150.815l0.021,0.013
		c235.819,148.669,440.892,292.219,676.742,440.908c25.648,16.032,51.327,22.556,76.52,22.554c4.142,0,8.27-0.176,12.384-0.514
		l0.369-0.161c52.193-47.528,99.331-102.02,139.149-165.729l0.003-0.005c91.182-148.776,159.444-324.861,159.447-498.244
		C1719.089,644.88,1718.766,632.971,1718.106,621.086z"/>
	<path style="fill:#9F221E;" d="M1474.245,1306.998l-0.743-0.251l-0.039,0.014c-17.424,6.773-35.298,11.439-53.444,12.933
		c-4.081,0.336-8.176,0.51-12.282,0.51c-24.979-0.002-50.398-6.454-75.856-22.363c-235.812-148.664-440.883-292.213-676.727-440.898
		c-56.655-38.949-100.973-90.118-112.773-150.023l-0.077,0.016l-0.433-0.511l-0.693,0.414l-0.008,0.025h0
		c-12.199,33.554-22.263,67.241-30.216,100.814l-0.012,0.221l0,0.005l0.267,0.438c95.465,65.215,192.072,128.933,289.107,192.216
		l0.023-0.005l65.199,42.392l26.813,17.434h0l18.644,12.122l0,0.001l10.085,6.557c155.445,100.818,311.269,201.602,464.646,306.603
		l0.584,0.065l0.001,0l0.159-0.093l0.819-0.657v0c7.225-5.617,14.401-11.363,21.511-17.263l0,0l0.094-0.075l0.01-0.008l0.256-0.214
		l0.006-0.005l0.481-0.413l0,0c6.652-5.532,13.24-11.207,19.781-16.982c1.119-0.987,2.236-1.977,3.352-2.972
		c13.867-12.366,27.484-25.261,40.8-38.706l0,0l0.574-0.562L1474.245,1306.998z"/>
	<path style="fill:#D89E76;" d="M511.915,807.314l-0.008-0.005l-0.646-0.041l-0.257,0.424l-0.061-0.015
		c-2.017,8.516-3.896,17.024-5.642,25.521l-0.044,0.212l-0.001,0.003c-3.484,16.978-6.424,33.91-8.83,50.765l-0.058,0.393
		c-2.384,16.758-4.232,33.435-5.557,50.004l-0.064,0.754c-1.3,16.443-2.072,32.773-2.336,48.968l-0.022,1.135
		c-0.055,3.713-0.083,7.416-0.083,11.111c0,12.285,0.302,24.484,0.897,36.587c0.025,0.518,0.046,1.043,0.073,1.57
		c0.799,15.575,2.103,30.981,3.887,46.198c0.079,0.669,0.152,1.344,0.233,2.02c0.917,7.622,1.945,15.2,3.108,22.721l0,0.004
		l0.027,0.167l-0.001-0.005c1.124,7.253,2.383,14.447,3.735,21.596c0.157,0.828,0.308,1.662,0.47,2.497
		c1.41,7.302,2.924,14.555,4.573,21.745l0.002,0.005l0.099,0.414l-0.001-0.005c1.581,6.877,3.295,13.688,5.093,20.453
		c0.255,0.959,0.505,1.922,0.767,2.886c1.887,6.96,3.873,13.87,5.992,20.706l0.002,0.006l0.208,0.649l-0.002-0.005
		c2.017,6.483,4.16,12.894,6.383,19.255c0.374,1.071,0.744,2.148,1.127,3.221c2.349,6.597,4.791,13.141,7.365,19.604l0.003,0.006
		l0.338,0.821l-0.003-0.005c2.437,6.09,4.993,12.102,7.626,18.063c0.508,1.15,1.013,2.303,1.53,3.452
		c2.8,6.221,5.687,12.386,8.704,18.463l0.004,0.007l0.472,0.922c2.846,5.701,5.807,11.318,8.841,16.881
		c0.653,1.196,1.304,2.395,1.967,3.589c3.24,5.83,6.563,11.603,10.016,17.279l0.004,0.007l0.589,0.941l0,0
		c1.445,2.362,2.978,4.637,4.444,6.947l0.515,0.289l0.526-0.271l223.249-325.837l0.097-0.474l-0.271-0.401
		C703.967,936.234,607.368,872.521,511.915,807.314z"/>
	<path style="fill:#D89E76;" d="M1353.552,1362.275c-142.765-96.985-299.12-197.999-299.123-198.001c0,0-0.86,0.183-0.86,0.183
		c-1.39,0.295-4.456,6.815-5.182,7.926c-4.732,7.239-9.45,14.498-14.286,21.658c-12.377,18.332-24.167,37.104-36.195,55.676
		c-24.554,37.915-49.109,75.83-73.664,113.745c-25.141,38.82-50.497,77.587-75.093,116.698c-5.355,8.513-9.642,15.429-12.655,20.433
		l-0.039,0.567l0.437,0.363c35.242,7.889,71.507,11.742,108.32,11.742c136.641-0.002,280.831-53.085,408.367-149.978l0.246-0.513
		L1353.552,1362.275z"/>
	<path style="fill:#F5BD9A;" d="M1386.435,1384.636c-10.94-7.49-21.914-14.918-32.877-22.365l-0.727,0.019
		c-127.352,96.758-271.3,149.729-407.618,149.728c-36.727,0-72.901-3.845-108.047-11.712l-0.671,0.287
		c-1.817,3.017-3.188,5.365-4.005,6.884c-2.126,3.952-3.094,8.006-3.227,12.034l0.442,0.617c2.373,0.72,4.743,1.488,7.148,2.176
		c1.536,0.439,3.073,0.879,4.617,1.303c6,1.648,12.024,3.218,18.095,4.626c13.534,3.14,27.223,5.681,41.038,7.633l0.013,0.002
		l0.614,0.073l0,0c6.257,0.876,12.542,1.618,18.847,2.253c1.276,0.129,2.549,0.233,3.815,0.351c5.366,0.5,10.747,0.915,16.146,1.242
		c1.203,0.073,2.409,0.161,3.627,0.227c6.435,0.344,12.889,0.582,19.365,0.684c0.679,0.011,1.349,0.002,2.006,0.01
		c1.972,0.024,3.945,0.035,5.919,0.035c3.896,0,7.799-0.045,11.708-0.128c1.286-0.027,2.573-0.052,3.865-0.089
		c13.114-0.373,26.288-1.226,39.504-2.555c0.514-0.052,1.048-0.078,1.607-0.135c0.661-0.069,1.303-0.17,1.922-0.236
		c6.341-0.678,12.69-1.442,19.049-2.338l0.735-0.097c6.838-0.972,13.677-2.08,20.519-3.299c0.833-0.148,1.66-0.309,2.482-0.459
		c6.137-1.12,12.279-2.339,18.421-3.657l0.063-0.012l0.14-0.027c0.702-0.151,1.4-0.292,2.105-0.446
		c2.496-0.545,4.98-1.187,7.452-1.759c3.429-0.794,6.863-1.574,10.302-2.432c1.013-0.253,2.043-0.462,3.093-0.73l0.201-0.053
		c2.215-0.565,4.418-1.223,6.609-1.807c3.384-0.901,6.771-1.816,10.156-2.776c1.103-0.314,2.221-0.589,3.353-0.917
		c0.794-0.23,1.589-0.458,2.388-0.692c1.362-0.401,2.708-0.855,4.041-1.255c3.49-1.051,6.976-2.14,10.461-3.251
		c3.128-0.998,6.258-1.994,9.388-3.044c3.837-1.286,7.666-2.641,11.491-4.001c1.896-0.674,3.809-1.294,5.729-1.995
		c0.67-0.245,1.338-0.493,2.005-0.739l0.577-0.223c6.366-2.355,12.732-4.799,19.085-7.362c1.908-0.771,3.798-1.602,5.683-2.382
		c4.739-1.96,9.477-3.943,14.205-6.019c0.593-0.26,1.206-0.5,1.831-0.776l0.916-0.411c1.631-0.724,3.242-1.512,4.847-2.239
		c4.118-1.864,8.235-3.751,12.342-5.703c1.021-0.485,2.063-0.934,3.113-1.438l0.523-0.248c1.397-0.673,2.764-1.401,4.128-2.068
		c4.133-2.022,8.258-4.089,12.375-6.197c2.431-1.245,4.863-2.488,7.292-3.766c4.578-2.408,9.141-4.886,13.693-7.399
		c1.237-0.682,2.496-1.325,3.756-2.03l0.624-0.337l0.016-0.009l0.49-0.284l0.84-0.488c6.498-3.657,12.984-7.406,19.436-11.285
		c6.516-3.916,12.996-7.96,19.449-12.092l0.643-0.4l0.009-0.005l1.033-0.666c0.966-0.623,1.907-1.28,2.847-1.89
		c4.916-3.195,9.818-6.438,14.697-9.76c0.738-0.503,1.501-0.981,2.266-1.505c1.102-0.755,2.173-1.554,3.248-2.298
		c4.642-3.215,9.266-6.484,13.869-9.812c0.957-0.692,1.94-1.351,2.919-2.065l0.258-0.19c0.712-0.52,1.4-1.066,2.086-1.57
		c4.967-3.65,9.905-7.371,14.821-11.151c0.917-0.706,1.862-1.379,2.802-2.108l0.242-0.511L1386.435,1384.636z"/>
	<path style="fill:#A16845;" d="M1016.345,1140.138l-0.23-0.775l-11.234-7.304l-0.478-0.085l-0.394,0.283l-252.227,412.947
		l-160.72,263.132c-6.974,11.417-18.735,19.682-31.853,22.367c-14.29,2.925-29.615-0.891-40.859-10.198
		c-11.101-9.189-17.685-23.302-17.685-37.699c0-9.046,2.493-18.177,7.738-26.319l429.625-667.156l-0.185-0.861l-26.167-17.014
		l-0.858,0.175l-443.531,659.081c-0.969,1.441-2.002,2.81-3.092,4.109c-1.09,1.298-2.237,2.525-3.435,3.68
		c-2.396,2.309-4.995,4.33-7.746,6.053c-2.751,1.723-5.655,3.149-8.66,4.27c-13.013,4.853-28.024,3.731-40.148-3.065
		c-14.929-8.368-24.445-24.698-24.447-41.793c0-1.326,0.055-2.654,0.166-3.981c0.688-8.26,3.472-16.436,8.591-23.663
		l457.924-646.509l0.104-0.478l-0.273-0.406l-45.266-29.432c0,0-0.857,0.174-0.864,0.184c0,0-223.25,325.837-223.297,325.906
		c0,0-264.989,386.757-265.015,386.799c-3.958,6.906-7.655,13.733-11.115,20.505l-0.059,0.392
		c14.44,81.579,104.88,138.888,191.903,138.902c13.28,0,26.482-1.336,39.337-4.129c102.883-20.605,154.213-113.111,210.581-195.076
		c41.136-56.615,36.006-118.225,61.574-174.401C863.529,1375.035,959.854,1267.724,1016.345,1140.138z"/>
	<path style="fill:#905C3D;" d="M1054.431,1164.276l-38.316-24.913l-0.637-0.025c0,0-0.197,0.33-0.273,0.296
		c-56.37,127.353-152.684,234.654-212.287,358.426c-25.695,56.607-20.577,118.034-61.468,174.217
		c-56.42,82.091-107.624,174.148-209.809,194.562c-12.765,2.775-25.883,4.103-39.083,4.103
		c-86.523,0.014-176.453-57.106-190.697-137.962l-0.547-0.425c0,0-0.602,0.343-0.63,0.399c-1.271,2.489-2.508,4.973-3.706,7.45
		l-0.087,0.182c-1.197,2.477-2.357,4.947-3.492,7.449c-16.411,36.157-25.979,77.946-12.616,116.641
		c11.716,33.927,37.162,59.927,64.831,81.668c6.164,4.843,12.461,9.516,18.808,14.117c23.325,16.03,46.613,27.914,69.463,35.957
		c11.425,4.022,22.74,7.083,33.894,9.222c13.243,2.54,26.259,3.777,38.961,3.777c69.316,0.006,129.233-36.9,165.661-100.238
		l189.448-338.356l0.764-1.364l-0.171-0.805c-0.005-0.003-1.99-1.484-4.993-4.108c-9.03-7.856-26.999-25.985-26.953-44.082
		c0,0,0.013-0.811,0.015-0.912c0.13-3.857,1.048-7.704,3.078-11.483c0.797-1.481,2.163-3.822,3.974-6.829
		c45.349-75.313,94.699-148.51,142.669-222.181c22.952-35.248,45.97-70.452,68.983-105.659c3.479-5.323,5.394-8.25,5.399-8.259
		l0.089-0.469L1054.431,1164.276z"/>
	<path style="fill:#CF4C31;" d="M1482.993,319.571c-21.905-53.397-111.78-176.362-234.067-176.426c-1.568,0-3.141,0.02-4.718,0.061
		c-119.276,3.093-225.144,46.985-327.625,108.438l-0.241,0.805c11.482,23.908,17.919,50.697,17.919,78.994
		c0,36.821-10.93,71.067-29.666,99.754l-0.005,0.008v0c-4.312,6.6-9.037,12.899-14.141,18.87l0.003-0.003l-0.322,0.372l-0.002,0.002
		c-2.509,2.919-5.098,5.762-7.783,8.515l-0.004,0.004l-0.056,0.058l0.004-0.004c-5.381,5.514-11.112,10.678-17.151,15.48
		l0.003-0.003l-1.062,0.835c-2.829,2.216-5.715,4.36-8.673,6.408l-0.007,0.004l-0.432,0.307c-3.186,2.192-6.441,4.288-9.768,6.278
		l-0.573,0.329l-0.007,0.004c-2.953,1.752-5.967,3.41-9.028,4.999c-0.666,0.346-1.331,0.688-2,1.024
		c-3.016,1.519-6.072,2.967-9.178,4.32l-0.008,0.004l-0.902,0.408c-3.426,1.469-6.911,2.829-10.443,4.091
		c-0.663,0.237-1.351,0.453-2.044,0.691c-2.83,0.973-5.689,1.878-8.58,2.716c-0.947,0.274-1.89,0.548-2.837,0.805
		c-3.241,0.881-6.51,1.688-9.816,2.393l-0.01,0.002l-1.014,0.234c-3.626,0.75-7.299,1.37-11.006,1.902
		c-0.973,0.14-1.964,0.25-2.962,0.377c-2.836,0.36-5.69,0.655-8.565,0.883c-1.086,0.086-2.162,0.18-3.241,0.247
		c-3.789,0.234-7.594,0.393-11.433,0.393c-30.964,0-60.109-7.729-85.663-21.321l-0.821,0.219
		c-8.418,13.394-15.971,27.311-22.339,41.858c-13.237,30.242-20.442,63.227-20.442,96.088c0,22.679,3.432,45.299,10.685,66.913
		c25.642,76.314,127.308,162.791,236.622,230.349c109.344,67.532,226.236,116.069,282.723,116.097c4.859,0,9.276-0.36,13.213-1.104
		c84.042-15.893,159.539-81.689,217.924-157.896c58.384-76.22,99.654-162.87,115.139-220.683
		c13.75-51.346,21.153-103.356,21.153-155.018C1519.749,445.088,1508.183,381.066,1482.993,319.571z"/>
	<path style="fill:#FFF3D9;" d="M935.508,331.443c0-28.487-6.481-55.463-18.041-79.534c-2.275-4.737-4.775-9.339-7.43-13.836
		c-32.002-54.203-90.98-90.586-158.484-90.586c-63.735,0-119.876,32.429-152.876,81.673l-0.003,0.005l-1.23,1.876l-0.095,0.247
		c-1.427,9.196-2.133,18.492-2.133,27.805c0,59.965,29.25,120.665,83.624,160.386c36.704,26.813,79.03,39.804,120.231,39.804
		c39.756,0,78.448-12.13,110.053-35.58l2.758-2.098l-0.009-0.053C926.886,394.918,935.508,364.199,935.508,331.443z"/>
	<path style="fill:#FFFEF5;" d="M889.02,223.099c-29.992-39.507-71.825-61.955-108.519-61.963
		c-16.654-0.001-32.256,4.638-45.153,14.428c-19.853,15.069-29.66,39.563-29.657,67.253c0.002,29.955,11.451,63.694,34.104,93.542
		c29.992,39.507,71.824,61.955,108.519,61.963c16.654,0.001,32.256-4.638,45.154-14.428c19.853-15.068,29.66-39.563,29.656-67.253
		C923.122,286.686,911.671,252.947,889.02,223.099z"/>
	<path style="fill:#FFFFFF;" d="M911.727,287.433c-2.767-10.902-6.577-21.534-11.326-31.726c-8.273-17.755-19.4-34.183-32.85-48.426
		c-2.526-2.673-4.874-5.528-7.506-7.748c-2.626-2.217-5.589-3.808-9.248-3.805c-1.28,0-2.639,0.193-4.089,0.61
		c-7.796,2.241-14.581,8.996-14.595,17.616l0.003,0.27v-0.006c0.21,10.926,9.525,18.795,16.951,26.202
		c17.274,17.162,29.104,39.74,33.386,63.71c1.431,7.962,2.182,16.616,7.11,23.376c3.138,4.274,8.594,7.081,13.726,7.091
		c3.069,0.004,6.051-1.034,8.236-3.429c2.791-3.068,3.512-7.324,3.811-11.248c0.138-1.849,0.203-3.698,0.203-5.546
		C915.538,305.284,913.957,296.226,911.727,287.433z"/>
	<path style="fill:#FFFFFF;" d="M821.747,178.78c-7.661,0-13.872,6.21-13.872,13.872c0,7.662,6.211,13.871,13.872,13.872
		c7.661-0.001,13.871-6.211,13.871-13.872C835.619,184.991,829.408,178.78,821.747,178.78z"/>
	<path style="fill:#ECD0B2;" d="M911.88,421.607l-0.135-0.778l-0.789-0.022c-31.831,24.548-71.301,37.232-111.884,37.232
		c-40.941,0-83.008-12.909-119.497-39.565c-54.055-39.487-83.113-99.818-83.113-159.379c0-9.25,0.7-18.482,2.118-27.614
		l-0.393-0.677l-0.745,0.241c-4.733,7.255-12.6,22.635-12.641,22.717c-1.753,3.751-3.367,7.576-4.868,11.456l0.002-0.004
		l-0.321,0.815l-0.002,0.007c-1.5,3.932-2.874,7.927-4.107,11.984l-0.003,0.012l-0.172,0.606l0,0
		c-1.097,3.657-2.058,7.37-2.928,11.114c-0.168,0.724-0.343,1.449-0.505,2.187c-0.873,3.974-1.641,7.99-2.252,12.062l-0.002,0.014
		l-0.113,0.887h0c-0.535,3.686-0.932,7.413-1.244,11.162c-0.085,1.022-0.166,2.044-0.233,3.075
		c-0.27,4.066-0.455,8.162-0.455,12.306v0.001c0,101.597,82.359,183.956,183.956,183.956c3.874,0,7.705-0.159,11.511-0.394
		c1.099-0.068,2.182-0.163,3.262-0.248c2.894-0.23,5.768-0.527,8.623-0.89c0.985-0.125,1.983-0.235,2.983-0.379
		c3.727-0.536,7.428-1.158,11.085-1.916l0.013-0.003l1.014-0.234l0,0c0.001,0,0.003-0.001,0.004-0.001l0.006-0.001l0,0
		c3.329-0.71,6.618-1.52,9.874-2.407c0.96-0.261,1.909-0.536,2.856-0.811c2.91-0.843,5.79-1.753,8.639-2.734
		c0.67-0.231,1.363-0.448,2.057-0.696c3.554-1.272,7.064-2.639,10.516-4.12l0.011-0.005l0.911-0.412v0
		c3.127-1.363,6.202-2.817,9.234-4.345c0.674-0.34,1.344-0.684,2.013-1.031c3.074-1.598,6.109-3.264,9.082-5.029l0,0l0.002-0.002
		c0.002-0.001,0.004-0.002,0.005-0.003l0,0l0.574-0.33l0.01-0.006c3.349-2.006,6.63-4.114,9.836-6.322l0.008-0.006l0.433-0.308l0,0
		c0-0.001,0-0.001,0-0.001l0.006-0.004l0,0c2.977-2.063,5.883-4.218,8.727-6.447l1.063-0.835l0.003-0.003
		c6.075-4.834,11.85-10.032,17.268-15.585l0.004-0.004l0.056-0.059l-0.003,0.004c2.703-2.773,5.312-5.636,7.836-8.573l-0.002,0.002
		l0.322-0.372l0.003-0.004c5.137-6.012,9.899-12.356,14.239-19.001l0.004-0.005l0,0c0-0.001,0-0.001,0-0.001l0.001-0.001
		l0.004-0.006l0,0C907.831,428.524,909.911,425.1,911.88,421.607z"/>
	<path style="fill:#ECD0B2;" d="M662.675,343.816c-0.001-0.775-0.246-1.56-0.772-2.175c-0.522-0.617-1.347-1.027-2.338-1.021
		c-0.991-0.006-1.816,0.405-2.338,1.022c-0.526,0.615-0.772,1.401-0.772,2.177c0,0.775,0.245,1.56,0.771,2.175
		c0.522,0.617,1.347,1.027,2.339,1.021c0.991,0.005,1.815-0.405,2.337-1.022C662.429,345.377,662.674,344.591,662.675,343.816z"/>
	<path style="fill:#ECD0B2;" d="M669.271,380.107l-0.005-0.073l-0.134-0.996l-0.017-0.085c-0.204-0.731-0.585-1.385-1.122-1.923
		l-0.061-0.054l-0.757-0.586l-0.068-0.046c-0.667-0.389-1.407-0.587-2.178-0.592v-0.003l-0.144-0.003
		c-0.53-0.001-1.038,0.141-1.51,0.371l-0.005-0.016c-0.016,0.005-0.027,0.023-0.043,0.028c-0.017,0.008-0.038,0.004-0.055,0.013
		l0.009,0.016c-0.506,0.181-0.965,0.465-1.34,0.86l-0.007-0.008c-0.006,0.005-0.007,0.014-0.013,0.02
		c-0.006,0.007-0.015,0.007-0.02,0.014l0.007,0.007c-0.395,0.374-0.679,0.834-0.86,1.34l-0.016-0.008
		c-0.009,0.016-0.005,0.037-0.013,0.053c-0.005,0.017-0.023,0.027-0.029,0.043l0.016,0.006c-0.231,0.472-0.372,0.98-0.371,1.511
		l0.003,0.158l0.005,0.045l0.133,0.996l0.018,0.086c0.205,0.731,0.585,1.384,1.122,1.922l0.061,0.054l0.757,0.586l0.069,0.046
		c0.667,0.388,1.407,0.588,2.179,0.593v0.002l0.02,0c0,0,0.001,0,0.002,0l0,0l0.12,0.002c0.53,0.001,1.039-0.14,1.512-0.371
		l0.005,0.015c0.017-0.005,0.026-0.021,0.042-0.027c0.017-0.009,0.037-0.005,0.054-0.013l-0.008-0.016
		c0.507-0.182,0.967-0.466,1.341-0.861l0.007,0.007c0.006-0.005,0.008-0.014,0.013-0.02c0.005-0.006,0.014-0.007,0.02-0.013
		L668,383.181c0.395-0.375,0.68-0.834,0.861-1.341l0.016,0.009c0.009-0.017,0.005-0.037,0.013-0.054
		c0.006-0.017,0.023-0.027,0.028-0.043l-0.016-0.005c0.231-0.473,0.372-0.982,0.371-1.512L669.271,380.107z"/>
	<path style="fill:#ECD0B2;" d="M693.729,391.811c2.482,0.005,4.425-0.985,5.694-2.471c1.272-1.485,1.89-3.43,1.891-5.364
		c0-1.933-0.618-3.876-1.89-5.359c-1.268-1.485-3.211-2.474-5.695-2.468c-2.482-0.006-4.426,0.985-5.695,2.471
		c-1.272,1.485-1.891,3.429-1.892,5.364c0.001,1.933,0.618,3.876,1.89,5.359C689.301,390.828,691.245,391.816,693.729,391.811z"/>
	<path style="fill:#ECD0B2;" d="M697.216,341.711l0.004,0.053l0.197,1.462l0.018,0.086c0.287,1.029,0.818,1.94,1.572,2.697
		l0.061,0.054l1.113,0.86l0.068,0.046c0.94,0.547,1.977,0.827,3.065,0.832v0.002l0.02,0c0.001,0,0.001,0.001,0.002,0.001v-0.001
		l0.176,0.004c0.75,0.001,1.466-0.192,2.132-0.523l0.005,0.016c0.027-0.009,0.048-0.026,0.075-0.035
		c0.006-0.004,0.015-0.002,0.021-0.006l-0.002-0.004c0.725-0.252,1.37-0.665,1.904-1.231l0.003,0.003
		c0.005-0.005,0.009-0.012,0.015-0.017c0.005-0.006,0.013-0.009,0.018-0.015l-0.003-0.003c0.566-0.533,0.978-1.179,1.231-1.904
		l0.004,0.002c0.003-0.007,0.002-0.015,0.005-0.021c0.009-0.027,0.027-0.049,0.036-0.076l-0.016-0.006
		c0.332-0.666,0.524-1.382,0.523-2.133l-0.002-0.19l-0.006-0.066c-0.066-0.487-0.131-0.974-0.197-1.462l-0.017-0.085
		c-0.287-1.029-0.818-1.941-1.572-2.698l-0.061-0.054l-1.113-0.86l-0.068-0.046c-0.94-0.547-1.977-0.827-3.065-0.833v-0.002
		l-0.198-0.004c-0.751-0.001-1.468,0.192-2.132,0.524l-0.005-0.016c-0.027,0.009-0.05,0.027-0.077,0.036
		c-0.006,0.004-0.014,0.002-0.021,0.006l0.002,0.004c-0.724,0.252-1.369,0.665-1.903,1.231l-0.003-0.003
		c-0.006,0.005-0.01,0.012-0.015,0.018c-0.005,0.006-0.013,0.009-0.018,0.015l0.004,0.003c-0.566,0.534-0.978,1.179-1.231,1.903
		l-0.004-0.002c-0.003,0.007-0.002,0.015-0.005,0.022c-0.009,0.026-0.027,0.048-0.036,0.075l0.016,0.005
		c-0.332,0.665-0.524,1.382-0.523,2.132L697.216,341.711z"/>
	<path style="fill:#ECD0B2;" d="M719.352,386.137c1.556,0.005,2.804-0.625,3.609-1.572c0.809-0.945,1.195-2.169,1.196-3.384
		c-0.001-1.214-0.387-2.437-1.196-3.381c-0.804-0.946-2.053-1.575-3.609-1.57c-1.556-0.005-2.805,0.625-3.61,1.572
		c-0.809,0.945-1.196,2.169-1.196,3.384c0,1.213,0.387,2.437,1.195,3.381C716.547,385.513,717.795,386.142,719.352,386.137z"/>
	<path style="fill:#ECD0B2;" d="M723.622,422.699c3.702,0.005,6.561-1.459,8.44-3.657c1.882-2.196,2.806-5.088,2.807-7.971
		c-0.001-2.881-0.924-5.77-2.805-7.964c-1.878-2.195-4.737-3.658-8.442-3.652c-3.702-0.005-6.561,1.459-8.44,3.656
		c-1.883,2.196-2.807,5.089-2.808,7.971c0,2.88,0.923,5.77,2.805,7.964C717.058,421.242,719.917,422.705,723.622,422.699z"/>
	<path style="fill:#ECD0B2;" d="M758.854,395.292c1.066,0.005,1.947-0.435,2.507-1.096c0.564-0.66,0.828-1.504,0.829-2.337
		c-0.001-0.834-0.265-1.677-0.828-2.336c-0.56-0.661-1.441-1.1-2.507-1.094c-1.067-0.006-1.948,0.435-2.508,1.095
		c-0.564,0.66-0.829,1.504-0.829,2.338c0,0.833,0.264,1.677,0.828,2.336C756.905,394.858,757.787,395.297,758.854,395.292z"/>
	<path style="fill:#ECD0B2;" d="M759.776,418.553c0,1.389,0.443,2.788,1.365,3.863c0.917,1.077,2.336,1.794,4.118,1.789
		c1.782,0.005,3.199-0.712,4.117-1.791c0.922-1.076,1.365-2.477,1.365-3.867c0-1.389-0.443-2.788-1.365-3.863
		c-0.918-1.077-2.336-1.794-4.118-1.789c-1.781-0.005-3.199,0.713-4.117,1.791C760.22,415.763,759.776,417.163,759.776,418.553z"/>
	<path style="fill:#ECD0B2;" d="M765.531,440.368c-0.658,0.769-0.969,1.759-0.97,2.74c0,0.98,0.311,1.969,0.969,2.738
		c0.654,0.77,1.677,1.283,2.932,1.277c1.254,0.005,2.276-0.508,2.931-1.279c0.658-0.769,0.969-1.76,0.97-2.74
		c-0.001-0.98-0.312-1.97-0.97-2.738c-0.654-0.77-1.676-1.282-2.931-1.277C767.208,439.084,766.185,439.597,765.531,440.368z"/>
	<path style="fill:#ECD0B2;" d="M802.626,416.044c1.217,0.005,2.211-0.493,2.846-1.242c0.639-0.747,0.941-1.708,0.942-2.66
		c-0.001-0.95-0.302-1.911-0.942-2.658c-0.635-0.748-1.629-1.246-2.846-1.24c-1.217-0.006-2.211,0.493-2.847,1.242
		c-0.639,0.747-0.941,1.708-0.942,2.659c0.001,0.951,0.302,1.911,0.941,2.658C800.414,415.552,801.409,416.05,802.626,416.044z"/>
	<path style="fill:#ECD0B2;" d="M825.047,420.666c1.33,0.005,2.409-0.537,3.1-1.352c0.695-0.813,1.026-1.862,1.027-2.901
		c-0.001-1.039-0.331-2.087-1.026-2.899c-0.692-0.814-1.771-1.356-3.101-1.35c-1.33-0.006-2.409,0.537-3.101,1.352
		c-0.696,0.813-1.026,1.862-1.027,2.901c0,1.038,0.33,2.086,1.026,2.899C822.637,420.13,823.716,420.672,825.047,420.666z"/>
	<path style="fill:#ECD0B2;" d="M826.114,436.837c-1.292-0.006-2.343,0.522-3.016,1.315c-0.677,0.791-0.998,1.811-0.999,2.821
		c0.001,1.009,0.321,2.028,0.998,2.818c0.673,0.792,1.724,1.319,3.017,1.313c1.292,0.005,2.343-0.522,3.015-1.315
		c0.677-0.791,0.997-1.811,0.998-2.821c-0.001-1.009-0.321-2.028-0.998-2.818C828.457,437.358,827.407,436.831,826.114,436.837z"/>
	<path style="fill:#ECD0B2;" d="M798.356,440.44c2.196,0.005,3.924-0.874,5.049-2.194c1.128-1.318,1.676-3.04,1.676-4.753
		c-0.001-1.711-0.547-3.431-1.675-4.748c-1.125-1.318-2.854-2.196-5.05-2.19c-2.196-0.005-3.925,0.874-5.05,2.193
		c-1.129,1.318-1.676,3.04-1.677,4.752c0.001,1.711,0.547,3.431,1.676,4.748C794.429,439.567,796.158,440.445,798.356,440.44z"/>
	<path style="fill:#ECD0B2;" d="M873.089,431.459c1.367,0.005,2.475-0.552,3.185-1.389c0.714-0.835,1.054-1.913,1.055-2.981
		c0-1.068-0.34-2.145-1.054-2.98c-0.711-0.836-1.818-1.392-3.186-1.386c-1.367-0.006-2.475,0.551-3.186,1.388
		c-0.714,0.835-1.054,1.913-1.055,2.982c0.001,1.067,0.34,2.145,1.055,2.979C870.613,430.909,871.72,431.465,873.089,431.459z"/>
	<path style="fill:#ECD0B2;" d="M892.307,410.004c0.991,0.006,1.815-0.405,2.337-1.022c0.526-0.616,0.771-1.401,0.772-2.177
		c0-0.775-0.245-1.561-0.771-2.175c-0.522-0.617-1.347-1.027-2.338-1.021c-0.991-0.006-1.815,0.405-2.338,1.022
		c-0.526,0.616-0.771,1.402-0.772,2.177c0.001,0.775,0.246,1.56,0.772,2.175C890.49,409.6,891.315,410.01,892.307,410.004z"/>
	<path style="fill:#ECD0B2;" d="M637.417,330.403c-0.658,0.769-0.969,1.76-0.97,2.74c0.001,0.98,0.311,1.97,0.969,2.738
		c0.654,0.77,1.677,1.282,2.933,1.277c1.254,0.005,2.277-0.508,2.93-1.279c0.658-0.769,0.969-1.76,0.97-2.74
		c0-0.98-0.312-1.97-0.969-2.738c-0.654-0.77-1.676-1.283-2.931-1.277C639.093,329.118,638.071,329.632,637.417,330.403z"/>
	<path style="fill:#ECD0B2;" d="M663.836,312.178c2.836,0.005,5.045-1.122,6.491-2.815c1.449-1.691,2.156-3.91,2.157-6.12
		c0-2.208-0.707-4.425-2.156-6.115c-1.445-1.691-3.654-2.817-6.492-2.811c-2.836-0.006-5.046,1.122-6.491,2.815
		c-1.449,1.691-2.157,3.91-2.158,6.12c0,2.208,0.707,4.425,2.156,6.115C658.788,311.058,660.997,312.184,663.836,312.178z"/>
	<path style="fill:#ECD0B2;" d="M628.581,285.126l0.005,0.055c0.107,0.798,0.214,1.596,0.322,2.395l0.017,0.085
		c0.454,1.624,1.286,3.051,2.475,4.247l0.061,0.054c0.608,0.469,1.216,0.938,1.823,1.408l0.068,0.046
		c1.488,0.864,3.115,1.304,4.837,1.312v0.002h0.02c0,0,0.001,0,0.002,0v0l0.286,0.005c1.192,0.001,2.327-0.28,3.378-0.815
		l0.001,0.003c0.016-0.005,0.028-0.015,0.043-0.02c0.017-0.009,0.036-0.011,0.053-0.021l-0.002-0.003
		c1.159-0.394,2.182-1.05,3.034-1.957l0.002,0.003c0.005-0.005,0.008-0.011,0.014-0.017c0.006-0.006,0.013-0.009,0.018-0.016
		l-0.003-0.003c0.907-0.852,1.563-1.874,1.957-3.034l0.004,0.003c0.009-0.018,0.011-0.037,0.021-0.055
		c0.004-0.015,0.015-0.027,0.019-0.042l-0.003-0.001c0.534-1.051,0.816-2.186,0.815-3.379l-0.006-0.306l-0.005-0.061
		c-0.107-0.798-0.214-1.596-0.322-2.395l-0.017-0.085c-0.454-1.624-1.286-3.051-2.475-4.246l-0.061-0.054
		c-0.608-0.47-1.216-0.94-1.823-1.409l-0.068-0.046c-1.488-0.864-3.115-1.304-4.836-1.311v-0.003l-0.308-0.006
		c-1.193,0-2.327,0.28-3.379,0.816l-0.001-0.004c-0.015,0.005-0.028,0.015-0.044,0.02c-0.017,0.009-0.036,0.011-0.053,0.02
		l0.002,0.004c-1.159,0.394-2.182,1.05-3.033,1.957l-0.003-0.003c-0.005,0.005-0.009,0.012-0.015,0.017
		c-0.005,0.006-0.012,0.009-0.018,0.015l0.003,0.003c-0.907,0.851-1.563,1.874-1.956,3.033l-0.004-0.002
		c-0.01,0.017-0.012,0.036-0.021,0.053c-0.005,0.016-0.015,0.029-0.021,0.044l0.004,0.001c-0.535,1.052-0.817,2.186-0.816,3.379
		L628.581,285.126z"/>
	<path style="fill:#ECD0B2;" d="M616.861,310.726c-0.991-0.006-1.816,0.405-2.338,1.022c-0.526,0.615-0.772,1.401-0.772,2.177
		c0.001,0.775,0.246,1.56,0.772,2.175c0.522,0.617,1.347,1.027,2.339,1.021c0.991,0.005,1.816-0.405,2.337-1.022
		c0.526-0.616,0.771-1.401,0.772-2.177c-0.001-0.775-0.246-1.56-0.771-2.175C618.676,311.13,617.852,310.72,616.861,310.726z"/>
	<path style="fill:#ECD0B2;" d="M611.554,252.954l0.503,1.223l0.013-0.005c0.187,0.624,0.503,1.191,0.964,1.653l0.003,0.003
		c0.48,0.478,1.064,0.819,1.716,1.001l1.027,0.139c1.024,0,2.028-0.4,2.77-1.141c0.74-0.741,1.14-1.746,1.14-2.77l-0.137-1.023
		l-0.001-0.004c-0.182-0.653-0.522-1.237-1-1.717l-0.003-0.003c-0.462-0.461-1.03-0.777-1.653-0.964l0.005-0.013l-1.223-0.503
		l-0.075-0.025l-0.878-0.118l-0.878,0.118l-0.006,0.002c-0.554,0.154-1.052,0.445-1.459,0.85l-0.003,0.003
		c-0.406,0.407-0.696,0.905-0.85,1.459l-0.002,0.006l-0.117,0.878l0.117,0.877L611.554,252.954z"/>
	<path style="fill:#ECD0B2;" d="M631.807,241.452c0.69,0.005,1.288-0.288,1.659-0.73c0.375-0.44,0.545-0.991,0.546-1.533
		c0-0.541-0.171-1.093-0.546-1.532c-0.371-0.442-0.97-0.734-1.659-0.729c-0.69-0.006-1.289,0.288-1.66,0.73
		c-0.375,0.44-0.545,0.991-0.546,1.533c0.001,0.541,0.171,1.093,0.546,1.532C630.518,241.165,631.117,241.458,631.807,241.452z"/>
	<path style="fill:#ECD0B2;" d="M660.633,266.577c1.217,0.005,2.211-0.493,2.846-1.242c0.639-0.747,0.94-1.708,0.941-2.66
		c0-0.951-0.302-1.911-0.941-2.658c-0.635-0.748-1.629-1.246-2.846-1.24c-1.217-0.006-2.211,0.493-2.847,1.242
		c-0.639,0.747-0.941,1.709-0.942,2.66c0.001,0.951,0.302,1.911,0.941,2.658C658.421,266.085,659.415,266.583,660.633,266.577z"/>
	<path style="fill:#E6AD82;" d="M679.847,939.54c-37.339-24.278-74.686-48.543-112.016-72.835
		c-9.298-6.011-23.192-19.145-36.406-19.193c-3.38-0.002-6.72,0.883-9.857,2.982c-6.66,4.507-9.197,15.428-10.399,26.879
		c-1.175,11.455-0.902,23.517-1.458,30.189c-1.635,19.703-2.47,39.586-2.47,59.522c0,65.075,8.896,130.723,27.922,192.557h-0.001
		c0.001,0.002,0.002,0.005,0.003,0.007v0l0,0c3.573,12.144,8.708,25.804,20.721,30.818c2.824,1.172,5.76,1.706,8.698,1.706
		c10.545-0.014,21.076-6.817,27.223-15.747l-0.514-0.353l0.514,0.353c7.817-11.389,10.331-25.337,13.657-38.527
		c11.88-47.198,36.53-91.124,70.625-125.856c11.772-12.022,25.83-27.037,25.869-42.842c0-3.319-0.631-6.666-2.04-9.996
		C696.149,950.326,687.719,944.666,679.847,939.54z"/>
	<path style="fill:#E6AD82;" d="M1246.044,1325.773c-2.858-11.914-13.47-19.885-23.29-26.695
		c-35.697-24.716-72.398-47.982-109.981-69.723c-11.764-6.798-24.834-13.716-38.278-13.724c-2.536,0-5.083,0.248-7.632,0.791
		c-17.937,3.846-29.363,20.64-38.91,35.901c-26.655,42.67-53.31,85.34-79.964,128.01c-3.29,5.27-10.474,14.153-16.828,23.604
		c-6.349,9.47-11.925,19.48-11.948,27.369c0,2.166,0.431,4.184,1.419,5.957c4.358,7.763,14.729,10.129,25.351,10.14
		c10.443-0.003,21.235-2.32,27.241-4.51c18.268-6.678,33.602-19.143,49.728-29.686c43.936-28.743,96.333-44.393,148.836-44.454
		l0.344,0c5.123,0,10.31,0.131,15.493,0.131c11.323-0.001,22.638-0.62,33.244-4.63c13.765-5.221,25.829-18.337,25.856-32.681
		C1246.725,1329.651,1246.506,1327.712,1246.044,1325.773z"/>
	<path style="fill:#B47C5C;" d="M1785.179,534.439c-9.878-32.192-27.048-68.702-49.084-105.913c-0.02-0.063-0.038-0.127-0.058-0.191
		l-0.058-0.13c-1.483-2.501-3.003-5.007-4.528-7.51c0,0,1.977,5.776,3.496,8.34c13.954,44.255,24.686,89.761,31.766,136.286
		c5.692,39.843,8.427,79.237,8.427,118.095c0.01,368.314-245.808,688.611-549.542,887.273l-0.219,0.793l0.759,0.32
		c80.808-27.01,160.429-70.656,234.077-129.086c81.144-64.378,155.036-146.675,215.209-244.501
		c93.021-151.229,138.224-314.988,138.225-465.953C1813.648,662.789,1804.073,596.025,1785.179,534.439z"/>
</g>
</svg>
